<svg xmlns="http://www.w3.org/2000/svg" xmlns:xlink="http://www.w3.org/1999/xlink" viewBox="0 0 549.7 444.3"><style><![CDATA[.A{isolation:isolate}.L,.P,.R,.X{mix-blend-mode:overlay}.a{opacity:.3}.b{fill:#093054}.c{stroke-miterlimit:10}.d{fill:#0b6ca8}.e{stroke-width:.9}]]></style><defs><linearGradient id="A" x1="190.1" y1="134.3" x2="197.9" y2="330.7" gradientUnits="userSpaceOnUse"><stop offset="0" stop-color="#0c4489"/><stop offset="1" stop-color="#093054"/></linearGradient><linearGradient id="B" x1="390.7" y1="126.3" x2="398.5" y2="322.7" xlink:href="#A"/><linearGradient id="C" x1="297.9" y1="182.2" x2="291.5" y2="317.7" gradientUnits="userSpaceOnUse"><stop offset="0" stop-color="#44a3ea"/><stop offset="1" stop-color="#1279d6"/></linearGradient><linearGradient id="D" x1="244.6" y1="56.5" x2="262.1" y2="146.1" gradientUnits="userSpaceOnUse"><stop offset="0" stop-color="#ffba9f"/><stop offset="1" stop-color="#ea8975"/></linearGradient><linearGradient id="E" x1="303.4" y1="84.2" x2="291.7" y2="167.8" xlink:href="#C"/><linearGradient id="F" x1="273" y1="179.4" x2="281.2" y2="144.7" xlink:href="#D"/><linearGradient id="G" x1="371.7" y1="68.3" x2="329.3" y2="175.1" xlink:href="#D"/><linearGradient id="H" x1="543" y1="165.8" x2="499.5" y2="271.7" xlink:href="#C"/><linearGradient id="I" x1="477.4" y1="242" x2="492.6" y2="307.2" xlink:href="#C"/><linearGradient id="J" y1="183.1" x2="80.4" y2="183.1" gradientUnits="userSpaceOnUse"><stop offset="0" stop-color="#b2ddf7"/><stop offset="1" stop-color="#cef"/></linearGradient><linearGradient id="K" x1="75.4" y1="175.9" x2="55.8" y2="270" xlink:href="#C"/><linearGradient id="L" x1="61.4" y1="315.8" x2="56.2" y2="275.6" xlink:href="#C"/><linearGradient id="M" x1="128.5" y1="305.4" x2="85.5" y2="265.7" xlink:href="#C"/><linearGradient id="N" x1="79.6" y1="148.6" x2="57.5" y2="79.9" xlink:href="#A"/><linearGradient id="O" x1="80.2" y1="88.3" x2="74.8" y2="124.9" xlink:href="#C"/><path id="P" d="M356.6 41.2a7.1 7.1 0 0 1 3.6-3.8c2.6-1 4.7 3.8 6 9 2.2 8.7-.8 13.5-5.6 3.7"/></defs><g class="A"><g><g><path d="M85.2 43.4c23.4 63 22.5 105.3-1.5 89s-38.4 12.3-8 34 58.3 94 36.3 149.2-54.6 74.5-47.2 93.6S92 378 136.8 376s124 77.7 157.6 67.4-53.2-71.5-7.3-129S391.5 381.6 470 327s-24.2-101-14-156.2S560.6 37 541.7 13s-80 92.5-107.6 68.6S386.4-2.7 356.4.1 342 113.8 278.8 98.8 61.8-19.7 85.2 43.4z" fill="#e9f6ff"/><path d="M243.5 198.3c-14.4-2-35.2 54.6-35.2 54.6l-31 8.8s51.6-90.8 29-97.2c-6.5-1.8-14 1-22.2 12s-55 93-41.2 111.6 56.5-1 56.5-1l-10.2 35.3a15.3 15.3 0 0 0 12.6 19.5h0a15.3 15.3 0 0 0 16.6-10.3c10.8-32.4 41.6-131 25-133.3z" fill="url(#A)"/><path d="M444 185.8c-14.4-2-35.2 54.6-35.2 54.6l-31 8.8s51.6-90.8 29.2-97.2c-6.5-1.8-14 1-22.2 12s-55 93-41.2 111.6 56.5-1 56.5-1L389.8 310a15.3 15.3 0 0 0 12.6 19.5h0a15.3 15.3 0 0 0 16.6-10.3c11-32.5 41.6-131 25-133.4z" fill="url(#B)"/><path d="M325.7 205a43 43 0 0 0-47.2-4.8 33.4 33.4 0 0 0-14.3 13.1c-6.7 11.3-10.8 26-11.4 41.6-.6 15 2 29 7.4 39.5 5.8 11.3 14.8 18 25.2 18.8.6 0 1.2.1 2 .1 6.6 0 15.8-2.7 25.5-14 6-7 11.6-16.6 16-27.6 9.4-23.6 13.4-53.4-3-66.7zm-18.3 49.5a91.9 91.9 0 0 1-11.2 23.9c-4.4 6.4-7.8 8.5-8.8 9-1-.2-2.5-1.8-4-4.8-6.6-12.8-6.7-39.5 3.2-56a7.6 7.6 0 0 1 3.2-3 21.4 21.4 0 0 1 9.3-2.3 16 16 0 0 1 10.4 3.9c1.4 1.5 3.6 11.5-2 29.4z" fill="url(#C)"/><g fill="#44a3ea"><use xlink:href="#P"/><use xlink:href="#P" x="28.6" y="7.4"/></g><path d="M390.2 54.5c-.5 3.7-21 63.7-40.2 72a20.7 20.7 0 0 1-13.8 1.1l4.3-3.2 1.5-1.2a34.7 34.7 0 0 0 4.2-4.1c-5.2-7.2-28.5-11.5-39-11l26.5-32c6.4-8.7 21.4-35.2 24-35.6 1.2-.2 2.3 1 3.2 2.5l.3.5a1.4 1.4 0 0 1 .1.2 11.2 11.2 0 0 1 1.3 4.3c0 2-17 49-17.2 50h0s7-1.7 9.5-4.7 27.8-44 31.5-45.5 4.6 3 4.2 6.7z" fill="#08527f"/><path d="M268.5 116.8s-8.8 11.8-16.2 14.8a8.4 8.4 0 0 1-3.2.7 230 230 0 0 1-7-26.5 204.9 204.9 0 0 1-4.2-31.8h0l-.2-5.3c-7.3-9-3-29-1-29.2s5.3 27 5.7 28.4c.2.8 8.4 16 15.6 29.4l8.8 16.3z" fill="url(#D)"/><path d="M268.5 116.8S257 132.4 249 132.3a230 230 0 0 1-7-26.5c2.8-3 7.7-6.8 16-8.5l10.5 19.5z" class="b"/><path d="M346.2 119a34.7 34.7 0 0 1-4.2 4.1l-.8.7-12.7 9.2a24.9 24.9 0 0 0 5.8 18.1 26 26 0 0 0 4.9 4.4 8.2 8.2 0 0 1-2.5 4.3c-5.3 5.7-18.5 12.7-33 14.7-13.6 1.8-28.5-.8-39.2-13l-1-1-12-22.7a32.6 32.6 0 0 1-2.3-5.5 28.3 28.3 0 0 1 2.2-4.1c4.8-7.5 13-14 15.5-14.7a.8.8 0 0 1 .6 0c.5.3 2.3 1.8 4.5 3.7l11 9.5c2.8 2 12.6-12 18.5-16.7a10.5 10.5 0 0 1 1.3-.9 11.4 11.4 0 0 1 4.4-.9c10.6-.7 34 3.7 39 10.8z" fill="url(#E)"/><path d="M271.8 117.2a79 79 0 0 0-18.4 17.9c-1 1.2-1.7 2-2 2.7a32.6 32.6 0 0 1-2.3-5.5 28.3 28.3 0 0 1 2.2-4.1c4.8-7.5 13-14 15.5-14.7a.8.8 0 0 1 .6 0c.5.3 2.3 1.8 4.4 3.7z" class="d"/><path class="L a" d="M264.3 161.5l-1-1-12-22.7a32.6 32.6 0 0 1-2.3-5.5 230 230 0 0 1-7-26.5 204.9 204.9 0 0 1-4.2-31.8 714 714 0 0 0 13.4 54.2q.5 1.7 1 3.4l1 3.5 9 21.3a9.2 9.2 0 0 1 1.9 5z" fill="#fff"/><path d="M292.2 172.3l.1.1z" fill="none" stroke="#5aa9ff" stroke-width=".5" class="c"/><path d="M300.3 139.6a69.9 69.9 0 0 0-1.8 9.5h0a20.5 20.5 0 0 0-.1 3c.2 4.6-6.6 16-6.7 17.7a4.1 4.1 0 0 0 .5 2.3 14.9 14.9 0 0 1-1.4-2.4 7.2 7.2 0 0 1-.8-2.8c-.1-2.5 3.3-4.6 2-7.2s-4 1.6-4.4 3.8-8 4.8-13 4a17.1 17.1 0 0 1-11.9-8.7h0c-3.5-6-5-15.2-3-28 .4 3.6 4 9 4.2 9.3a40.2 40.2 0 0 1-.5-15.3c1.4-8.3 11.4-13.5 10.4-25.5 6.3 4 2.7 21.5 2.6 22.2l5-10.5v1.8c0 3 0 9.4 1 11.7a52.1 52.1 0 0 1 1.9 7 23.6 23.6 0 0 1 1.3-5.6 10.3 10.3 0 0 1 3.3-4.8 18.3 18.3 0 0 0 1.1 5.8 73.3 73.3 0 0 0 4.4 9.8l3.6 7.8c.2-3.8 2.3-5 2.3-5z" class="b"/><path d="M290 167a7.2 7.2 0 0 0 .8 2.8 18.1 18.1 0 0 1-1.5 3.6c-3 5.3-8.6 10.4-14 10.2-8.7-.5-11.5-14.2-12.4-21l-.4-3.7a17.1 17.1 0 0 0 11.9 8.7c5 1 12.7-1.6 13-4s3-6.5 4.4-3.8-2 4.7-2 7.2z" fill="url(#F)"/><path d="M262.5 159h0" fill="none" stroke="#5aa9ff" stroke-width=".5" class="c"/><path d="M383.7 81.8c-1 5.4-6.7 10.8-6.7 10.8s-11 24.5-23.3 44c-4.8 7.6-9.8 14.5-14.4 19a26 26 0 0 1-4.9-4.4 24.9 24.9 0 0 1-5.8-18.1l13.5-9.8a34.7 34.7 0 0 0 4.2-4.1l25.4-30.5c2-3.5 6.4-24 9-24s4 11.8 3 17.2z" fill="url(#G)"/><path class="P a" d="M346.2 119c-4.6 5.6-17.3 13.7-17.7 14h0s-11.8 5-14.7 5.3 13.2-7 8.8-16.8a20 20 0 0 0-21.1-11.5 10.5 10.5 0 0 1 1.3-.9c5.7-3 37.3 1.5 43.5 10zm-47.8 30a20.5 20.5 0 0 0-.1 3c.2 4.6-6.6 16-6.7 17.7a4.1 4.1 0 0 0 .5 2.3 14.9 14.9 0 0 1-1.4-2.4 7.2 7.2 0 0 1-.8-2.8c-.1-2.5 3.3-4.6 2-7.2s-4 1.6-4.4 3.8-8 4.8-13 4a17.1 17.1 0 0 1-11.9-8.7h0c-3.5-6-5-15.2-3-28 0 0 1 14.6 5.3 18.7.2-5 4-15.6 2.8-18.7 11.4 6.8 11 15 11 15a19.1 19.1 0 0 0 0-10.2c-1.3-4.5-1-16.8 2.7-23 0 3 0 9.4 1 11.7a52.1 52.1 0 0 1 1.9 7 23.6 23.6 0 0 1 1.3-5.6 76 76 0 0 1 1.7 15.6c2-2.7 1-9.7 2.8-14.5a73.3 73.3 0 0 0 4.4 9.8c1.2 4.3 2.8 8.4 4 12.3z"/><path class="P a" d="M290 167a7.2 7.2 0 0 0 .8 2.8 18.1 18.1 0 0 1-1.5 3.6c-.7-5.8-9.5-1.6-16-2.8-4.4-.8-8-5-10.4-8l-.4-3.7a17.1 17.1 0 0 0 11.9 8.6c5 1 12.7-1.6 13-4s3-6.5 4.4-3.8-2 4.7-2 7.2z"/><path d="M353.6 136.6c-4.8 7.6-9.8 14.5-14.5 19a26 26 0 0 1-4.9-4.4 24.9 24.9 0 0 1-5.8-18.1l12.8-9.2c.5 2.4 2.2 6.5 7.4 10a30.4 30.4 0 0 0 4.9 2.7z" class="b"/><path d="M339 155.5a8.2 8.2 0 0 1-2.5 4.3c-14.6-5.8-14.4-22-14-24s6-2.8 6-2.8a24.8 24.8 0 0 0 10.7 22.5z" class="d"/><path class="L a" d="M377 92.6s-11 24.5-23.3 44c-4.8 7.6-9.8 14.5-14.5 19a8.2 8.2 0 0 1-2.5 4.3c-5.3 5.7-18.5 12.7-33 14.7h0s13.8-6 30.6-23.4l7.6-8.5 6.8-8.7c16-21.5 26-42 28.3-41.3z" fill="#fff"/><path d="M361 43.7l-.3-.5.3.5z" fill="#08527f"/><path class="P a" d="M362.3 48c0 2-17 49-17.2 50h0s-7.8-1.4-13.4 1.4c.6-5.7 32.8-48 29.3-55.6a11.2 11.2 0 0 1 1.3 4.3z"/><path d="M487.6 259.7s2.2-21.4 23.4-44.2 34.4-53 29-62.8c32 26.8-21.8 129.4-52.3 107z" fill="url(#H)"/><path d="M483.4 260.2s-19.6-40.6 26.8-74.8c-3 11.2 1 67.4-26.7 74.8z" class="b"/><g fill="none" stroke="#fff" stroke-linecap="round" stroke-linejoin="round" class="e"><path class="R a" d="M540 152.8s9.7 7.6.6 34.6-45.2 63-47.2 71.6"/><path class="R a" d="M534 182.5s2.5 9.5 2 15c12.5-6.3 12.3-4 12.3-4m-24.8 6.5l-.4 18c15.3-2 17.2-.1 17.2-.1m-31.8.4a46 46 0 0 0 1.5 17 58 58 0 0 1 18.8 3.4m-18.6-53.3s-29.5 45.7-22.6 74.3"/><path class="R a" d="M488 209l5.8 9 13.8-4m-27.2 13.7l7.6 10 16.6-6.2"/></g><path d="M507 269.5l-11.2 28.8a2.9 2.9 0 0 1-3.4 1.8l-25-6.4a2.9 2.9 0 0 1-2.1-3.2l4-30.6a2.9 2.9 0 0 1 3.6-2.4l32.3 8.3a2.9 2.9 0 0 1 2 3.8z" fill="url(#I)"/><rect x="483.7" y="239.2" width="10.4" height="44.8" rx="2.2" transform="matrix(.25 -.97 .97 .25 114.05 670.11)" class="d"/><path class="P a" d="M511.3 264.2l-1.5 6a2.2 2.2 0 0 1-2.6 1.6l-1-.2-10.5 27a2.9 2.9 0 0 1-3.4 1.8l-19-5c10.2-7.7 16.4-18.4 20-27l2-5c.6-2 1.2-3.6 1.6-5l13 3.3a2.2 2.2 0 0 1 1.6 2.7z"/><path d="M20 240S1.2 239 .5 213s88.2-58 78.7-87.2" fill="none" stroke="url(#J)" class="c e"/><path d="M117 207l-30 46.8-72.6-15 27.4-48.3a1.4 1.4 0 0 1 1.5-.7l72.8 15a1.4 1.4 0 0 1 .9 2.1z" fill="url(#K)"/><path d="M95.7 297.5l-69-12.2-12.4-46.5 76.2 15.7 5.2 43z" fill="url(#L)"/><path d="M95.7 297.5l-5.2-43 2.4-4.3a3 3 0 0 0 .1.6c.7 5 5.6 43 2.7 46.8z" fill="url(#M)"/><ellipse class="L a" cx="61.6" cy="220.8" rx="6.6" ry="5.6" transform="matrix(.38 -.93 .93 .38 -166.16 194.72)" fill="#fff"/><path class="P a" d="M93 250h0a3 3 0 0 0 .1.6c.7 5 5.6 43 2.7 46.8l-3.3-.6c-1-12.7-7.2-38-5.8-42.4.1-.2.2-.5.3-.7 3-7.5 23-41.3 22.7-46-.1-3-.8-4-1.4-4.3l7.8 1.6a1.4 1.4 0 0 1 .9 2z"/><circle class="P a" cx="92.4" cy="259.4" r=".8"/><g fill="none" stroke="#000" class="c e"><path class="X a" d="M93 262.2l.7 5.7m.3 2l.7 5.7"/></g><path d="M79.3 126.4c4.8-5 2.2-15.3-4.4-21.3s-13.2-5.4-17-2.5-4.2 9.5 0 14 15 16 21.3 9.7z" fill="url(#N)"/><path d="M73.5 118.3a7.9 7.9 0 0 1 2 2.9c.7 1.8 2.5 2.2 2.2-.3s-3.8-6.7-4.2-2.6z" fill="url(#O)"/></g></g></g></svg>